<?xml version="1.0" encoding="UTF-8"?>
<!DOCTYPE svg PUBLIC "-//W3C//DTD SVG 1.1//EN" "http://www.w3.org/Graphics/SVG/1.1/DTD/svg11.dtd">
<svg xmlns="http://www.w3.org/2000/svg" version="1.1" width="301px" height="301px" style="shape-rendering:geometricPrecision; text-rendering:geometricPrecision; image-rendering:optimizeQuality; fill-rule:evenodd; clip-rule:evenodd" xmlns:xlink="http://www.w3.org/1999/xlink">
<g><path style="opacity:1" fill="#171717" d="M 137.5,22.5 C 198.797,19.883 242.964,45.883 270,100.5C 289.574,152.386 281.907,199.72 247,242.5C 235.724,254.281 222.891,263.948 208.5,271.5C 206.252,268.672 204.252,265.672 202.5,262.5C 245.651,239.245 268.317,202.912 270.5,153.5C 267.021,94.8865 237.688,56.0531 182.5,37C 142.563,27.4524 106.73,35.6191 75,61.5C 72.8333,58.6667 70.6667,55.8333 68.5,53C 88.6126,36.2765 111.613,26.1099 137.5,22.5 Z"/></g>
<g><path style="opacity:1" fill="#161616" d="M 56.5,63.5 C 59.1059,66.1277 61.4392,69.1277 63.5,72.5C 31.2232,112.601 24.7232,156.601 44,204.5C 66.1433,248.509 101.977,271.842 151.5,274.5C 163.557,273.852 175.39,271.852 187,268.5C 189.856,270.704 192.023,273.537 193.5,277C 140.62,293.488 94.7869,281.988 56,242.5C 20.3513,198.968 13.018,150.968 34,98.5C 40.0145,85.7856 47.5145,74.119 56.5,63.5 Z"/></g>
<g><path style="opacity:0.967" fill="#ca3536" d="M 120.5,79.5 C 109.88,78.3799 99.2131,78.2132 88.5,79C 90.0548,80.6458 91.7215,80.9791 93.5,80C 91.8446,81.4443 91.178,83.2776 91.5,85.5C 89.6098,83.4099 87.9431,81.0765 86.5,78.5C 97.4849,77.3342 108.485,77.1676 119.5,78C 120.056,78.3826 120.389,78.8826 120.5,79.5 Z"/></g>
<g><path style="opacity:1" fill="#ea1c24" d="M 120.5,79.5 C 121.837,85.1832 124.837,89.8498 129.5,93.5C 129.338,95.5273 129.505,97.5273 130,99.5C 131.522,101.022 133.022,102.522 134.5,104C 134.265,104.873 133.931,105.707 133.5,106.5C 134.274,107.711 135.107,107.711 136,106.5C 137.438,107.9 138.271,109.567 138.5,111.5C 139.5,111.5 140.5,111.5 141.5,111.5C 142.543,115.494 144.376,119.161 147,122.5C 148.039,123.71 149.206,124.71 150.5,125.5C 151.167,125.5 151.5,125.833 151.5,126.5C 151.468,131.089 153.468,134.423 157.5,136.5C 158.906,136.973 159.573,137.973 159.5,139.5C 159.974,143.455 161.308,147.121 163.5,150.5C 164.736,151.246 166.07,151.579 167.5,151.5C 167.684,154.337 169.018,156.337 171.5,157.5C 173.664,159.822 175.331,162.489 176.5,165.5C 176.201,167.604 176.534,169.604 177.5,171.5C 179.511,173.198 181.511,174.865 183.5,176.5C 182.756,179.95 184.09,181.616 187.5,181.5C 186.527,147.191 186.194,112.858 186.5,78.5C 197.082,78.1801 207.582,78.5134 218,79.5C 218.819,129.195 218.653,178.862 217.5,228.5C 206.495,228.667 195.495,228.5 184.5,228C 182.217,224.521 180.717,220.688 180,216.5C 177.162,214.8 174.329,213.133 171.5,211.5C 171.5,211.167 171.5,210.833 171.5,210.5C 171.092,206.427 169.092,203.427 165.5,201.5C 164.759,197.708 163.759,194.041 162.5,190.5C 160.784,190.371 159.117,190.038 157.5,189.5C 157.762,188.022 157.429,186.689 156.5,185.5C 155.591,183.625 154.257,182.292 152.5,181.5C 149.104,174.316 145.271,167.316 141,160.5C 138.918,157.617 136.418,155.283 133.5,153.5C 132.4,152.395 131.733,151.062 131.5,149.5C 128.625,143.28 125.291,137.28 121.5,131.5C 120.927,128.853 120.26,126.187 119.5,123.5C 118.137,124.879 117.137,124.713 116.5,123C 117.187,121.838 117.353,120.672 117,119.5C 114.529,117.689 112.029,116.022 109.5,114.5C 109.007,112.194 108.674,109.861 108.5,107.5C 107.167,107.5 105.833,107.5 104.5,107.5C 104.5,107.167 104.5,106.833 104.5,106.5C 104.693,103.692 105.36,101.025 106.5,98.5C 102.442,100.124 100.109,98.6243 99.5,94C 99.9054,93.0546 100.572,92.3879 101.5,92C 99.7928,91.8047 98.1261,91.8047 96.5,92C 95.3972,89.2428 93.7306,87.0762 91.5,85.5C 91.178,83.2776 91.8446,81.4443 93.5,80C 91.7215,80.9791 90.0548,80.6458 88.5,79C 99.2131,78.2132 109.88,78.3799 120.5,79.5 Z"/></g>
<g><path style="opacity:0.967" fill="#ca3034" d="M 171.5,211.5 C 174.329,213.133 177.162,214.8 180,216.5C 180.717,220.688 182.217,224.521 184.5,228C 195.495,228.5 206.495,228.667 217.5,228.5C 218.653,178.862 218.819,129.195 218,79.5C 207.582,78.5134 197.082,78.1801 186.5,78.5C 186.194,112.858 186.527,147.191 187.5,181.5C 184.09,181.616 182.756,179.95 183.5,176.5C 184.222,176.918 184.722,177.584 185,178.5C 185.5,144.835 185.667,111.168 185.5,77.5C 196.748,77.1793 207.915,77.5126 219,78.5C 219.667,128.5 219.667,178.5 219,228.5C 207.243,229.654 195.409,229.821 183.5,229C 179.367,223.225 175.367,217.391 171.5,211.5 Z"/></g>
<g><path style="opacity:1" fill="#d55855" d="M 120.5,79.5 C 123.996,83.8187 126.996,88.4854 129.5,93.5C 124.837,89.8498 121.837,85.1832 120.5,79.5 Z"/></g>
<g><path style="opacity:1" fill="#db3b39" d="M 91.5,85.5 C 93.7306,87.0762 95.3972,89.2428 96.5,92C 98.1261,91.8047 99.7928,91.8047 101.5,92C 100.572,92.3879 99.9054,93.0546 99.5,94C 100.109,98.6243 102.442,100.124 106.5,98.5C 105.36,101.025 104.693,103.692 104.5,106.5C 99.4181,100.011 95.0847,93.011 91.5,85.5 Z"/></g>
<g><path style="opacity:1" fill="#dc4343" d="M 129.5,93.5 C 133.983,99.119 137.983,105.119 141.5,111.5C 140.5,111.5 139.5,111.5 138.5,111.5C 138.271,109.567 137.438,107.9 136,106.5C 135.107,107.711 134.274,107.711 133.5,106.5C 133.931,105.707 134.265,104.873 134.5,104C 133.022,102.522 131.522,101.022 130,99.5C 129.505,97.5273 129.338,95.5273 129.5,93.5 Z"/></g>
<g><path style="opacity:1" fill="#dc504c" d="M 104.5,107.5 C 105.833,107.5 107.167,107.5 108.5,107.5C 108.674,109.861 109.007,112.194 109.5,114.5C 107.478,112.469 105.811,110.135 104.5,107.5 Z"/></g>
<g><path style="opacity:1" fill="#d76a64" d="M 141.5,111.5 C 144.996,115.819 147.996,120.485 150.5,125.5C 149.206,124.71 148.039,123.71 147,122.5C 144.376,119.161 142.543,115.494 141.5,111.5 Z"/></g>
<g><path style="opacity:1" fill="#dd3a39" d="M 109.5,114.5 C 112.029,116.022 114.529,117.689 117,119.5C 117.353,120.672 117.187,121.838 116.5,123C 117.137,124.713 118.137,124.879 119.5,123.5C 120.26,126.187 120.927,128.853 121.5,131.5C 120.833,131.5 120.167,131.5 119.5,131.5C 115.918,126.006 112.585,120.339 109.5,114.5 Z"/></g>
<g><path style="opacity:1" fill="#7b0b0b" d="M 87.5,111.5 C 94.9982,122.49 101.998,133.824 108.5,145.5C 108.422,149.264 109.922,152.264 113,154.5C 113.5,179.164 113.667,203.831 113.5,228.5C 103.167,228.5 92.8333,228.5 82.5,228.5C 82.1668,188.161 82.5001,147.828 83.5,107.5C 84.5213,109.188 85.8546,110.521 87.5,111.5 Z"/></g>
<g><path style="opacity:1" fill="#d35a59" d="M 151.5,126.5 C 153.89,129.566 155.89,132.9 157.5,136.5C 153.468,134.423 151.468,131.089 151.5,126.5 Z"/></g>
<g><path style="opacity:1" fill="#d55b53" d="M 119.5,131.5 C 120.167,131.5 120.833,131.5 121.5,131.5C 125.291,137.28 128.625,143.28 131.5,149.5C 127.017,143.881 123.017,137.881 119.5,131.5 Z"/></g>
<g><path style="opacity:0.986" fill="#681615" d="M 87.5,111.5 C 85.8546,110.521 84.5213,109.188 83.5,107.5C 82.5001,147.828 82.1668,188.161 82.5,228.5C 92.8333,228.5 103.167,228.5 113.5,228.5C 113.667,203.831 113.5,179.164 113,154.5C 109.922,152.264 108.422,149.264 108.5,145.5C 110.558,147.927 112.391,150.593 114,153.5C 114.5,178.831 114.667,204.164 114.5,229.5C 103.5,229.5 92.5,229.5 81.5,229.5C 81.3333,186.832 81.5,144.165 82,101.5C 84.0906,104.74 85.9239,108.074 87.5,111.5 Z"/></g>
<g><path style="opacity:1" fill="#db4b48" d="M 159.5,139.5 C 162.66,143.148 165.327,147.148 167.5,151.5C 166.07,151.579 164.736,151.246 163.5,150.5C 161.308,147.121 159.974,143.455 159.5,139.5 Z"/></g>
<g><path style="opacity:0.984" fill="#d2615e" d="M 167.5,151.5 C 169.192,153.205 170.525,155.205 171.5,157.5C 169.018,156.337 167.684,154.337 167.5,151.5 Z"/></g>
<g><path style="opacity:1" fill="#d85d5b" d="M 133.5,153.5 C 136.418,155.283 138.918,157.617 141,160.5C 145.271,167.316 149.104,174.316 152.5,181.5C 145.685,172.55 139.351,163.217 133.5,153.5 Z"/></g>
<g><path style="opacity:1" fill="#d24e4b" d="M 176.5,165.5 C 179.579,168.65 181.913,172.317 183.5,176.5C 181.511,174.865 179.511,173.198 177.5,171.5C 176.534,169.604 176.201,167.604 176.5,165.5 Z"/></g>
<g><path style="opacity:0.996" fill="#d7625f" d="M 152.5,181.5 C 154.257,182.292 155.591,183.625 156.5,185.5C 157.429,186.689 157.762,188.022 157.5,189.5C 155.336,187.178 153.669,184.511 152.5,181.5 Z"/></g>
<g><path style="opacity:1" fill="#d7514f" d="M 157.5,189.5 C 159.117,190.038 160.784,190.371 162.5,190.5C 163.759,194.041 164.759,197.708 165.5,201.5C 162.35,197.881 159.684,193.881 157.5,189.5 Z"/></g>
<g><path style="opacity:1" fill="#d56063" d="M 165.5,201.5 C 169.092,203.427 171.092,206.427 171.5,210.5C 168.759,208.025 166.759,205.025 165.5,201.5 Z"/></g>
</svg>
